-56.000000	-35.000000	40.000000	1	4.000	PiP_only
-56.000000	-35.000000	12.000000	2	4.000	Shared
-56.000000	-7.000000	12.000000	2	4.000	Shared
-56.000000	-7.000000	26.000000	2	4.000	Shared
-42.000000	-7.000000	40.000000	2	4.000	Shared
-56.000000	-49.000000	-2.000000	3	4.000	Betweenness_only
-42.000000	7.000000	26.000000	3	4.000	Betweenness_only
-42.000000	7.000000	40.000000	3	4.000	Betweenness_only
0.000000	7.000000	40.000000	3	4.000	Betweenness_only
0.000000	21.000000	54.000000	3	4.000	Betweenness_only
42.000000	-7.000000	40.000000	3	4.000	Betweenness_only
